<svg width="93" height="87" viewBox="0 0 93 87" fill="none" xmlns="http://www.w3.org/2000/svg">
<path fill-rule="evenodd" clip-rule="evenodd" d="M24.5727 0H0V70.9858H24.2731C26.1968 70.9858 28.0486 70.8518 29.8284 70.5836L25.0078 78.2236L25.5938 78.5961L30.7448 70.4325C30.8512 70.4135 30.9573 70.3939 31.0631 70.3739L30.9406 70.1223L34.7552 64.0767L47.6468 43.7835C47.635 43.7563 47.6231 43.7291 47.6112 43.702L50.6383 38.9045V87H92.6916V77.9764H60.2276V23.7068L66.4205 13.8919L65.8345 13.5194L47.2623 42.9536C46.5557 41.5235 45.6851 40.2398 44.6505 39.1024C43.3186 37.4982 41.7204 36.2282 39.8558 35.2924C37.9912 34.2898 35.9934 33.7216 33.8624 33.5879V33.3874C37.4584 32.1843 40.3885 30.3127 42.6527 27.7727C44.9168 25.1659 46.0489 21.8238 46.0489 17.7465C46.0489 14.7386 45.4829 12.1318 44.3508 9.92598C43.2853 7.65337 41.787 5.81522 39.8558 4.41155C37.9912 2.94103 35.727 1.83814 33.0633 1.10288C30.4662 0.367628 27.636 0 24.5727 0ZM22.6748 29.4772H9.58936V8.42205H24.6726C28.535 8.42205 31.3652 9.45809 33.1632 11.5302C34.9612 13.6023 35.8602 16.042 35.8602 18.8493C35.8602 20.7878 35.4939 22.4254 34.7614 23.7622C34.0955 25.099 33.1632 26.2019 31.9645 27.0709C30.7659 27.9398 29.3674 28.5748 27.7692 28.9759C26.171 29.3101 24.4728 29.4772 22.6748 29.4772ZM23.6737 62.5638H9.58936V37.8992H23.7736C28.4351 37.8992 32.131 38.9687 34.8613 41.1076C37.5916 43.1797 38.9568 46.3213 38.9568 50.5323C38.9568 53.0723 38.424 55.111 37.3585 56.6483C36.2931 58.1857 34.9945 59.4222 33.4629 60.358C31.9312 61.227 30.2664 61.8285 28.4684 62.1627C26.737 62.4301 25.1388 62.5638 23.6737 62.5638Z" fill="white"/>
</svg>
