<svg width="89" height="84" viewBox="0 0 89 84" fill="none" xmlns="http://www.w3.org/2000/svg">
<path fill-rule="evenodd" clip-rule="evenodd" d="M23.5941 0H0V68.1587H23.3064C25.1535 68.1587 26.9315 68.03 28.6405 67.7725L24.0118 75.1082L24.5745 75.4659L29.5204 67.6274C29.6225 67.6091 29.7244 67.5904 29.826 67.5711L29.7083 67.3296L33.371 61.5248L45.7492 42.0398C45.7378 42.0136 45.7264 41.9875 45.715 41.9615L48.6215 37.355V83.5351H89V74.8708H57.8289V22.7626L63.7752 13.3386L63.2126 12.9809L45.38 41.2429C44.7015 39.8698 43.8656 38.6372 42.8722 37.5451C41.5934 36.0048 40.0588 34.7853 38.2685 33.8868C36.4781 32.9241 34.5599 32.3786 32.5138 32.2502V32.0577C35.9666 30.9025 38.78 29.1054 40.954 26.6666C43.1279 24.1636 44.2149 20.9546 44.2149 17.0397C44.2149 14.1516 43.6714 11.6486 42.5844 9.53067C41.5614 7.34856 40.1227 5.58362 38.2685 4.23585C36.4781 2.8239 34.3041 1.76493 31.7465 1.05896C29.2528 0.352986 26.5354 0 23.5941 0ZM21.7718 28.3032H9.20745V8.08663H23.69C27.3986 8.08663 30.116 9.08141 31.8424 11.071C33.5688 13.0605 34.432 15.4031 34.432 18.0986C34.432 19.9599 34.0803 21.5323 33.377 22.8158C32.7376 24.0994 31.8424 25.1584 30.6915 25.9927C29.5406 26.8271 28.1978 27.4368 26.6632 27.8219C25.1287 28.1427 23.4982 28.3032 21.7718 28.3032ZM22.7309 60.0721H9.20745V36.3898H22.8268C27.3026 36.3898 30.8513 37.4167 33.4729 39.4704C36.0945 41.46 37.4053 44.4765 37.4053 48.5198C37.4053 50.9586 36.8937 52.9161 35.8707 54.3922C34.8476 55.8683 33.6008 57.0557 32.1302 57.9542C30.6595 58.7885 29.061 59.3661 27.3346 59.687C25.6722 59.9437 24.1376 60.0721 22.7309 60.0721Z" fill="black"/>
</svg>
